<svg width="127" height="127" fill="none" xmlns="http://www.w3.org/2000/svg">
  <path d="M123.884 57.495L68.767 2.38c-3.172-3.174-8.32-3.174-11.497 0L45.827 13.825l14.518 14.518c3.375-1.139 7.243-.375 9.932 2.314a9.66 9.66 0 012.293 9.993l13.992 13.994c3.385-1.167 7.292-.413 9.994 2.295 3.78 3.778 3.78 9.9 0 13.68a9.673 9.673 0 01-13.683 0 9.677 9.677 0 01-2.105-10.522L67.72 47.05l-.002 34.34a9.708 9.708 0 012.56 1.829c3.778 3.777 3.778 9.898 0 13.683-3.78 3.777-9.905 3.777-13.68 0-3.778-3.784-4.088-9.906-.31-13.683.933-.933 1.854-1.638 2.854-2.11v-34.66c-1-.471-1.92-1.171-2.856-2.11-2.86-2.86-3.396-7.06-1.928-10.576L40.125 19.45 2.371 57.24c-3.175 3.176-3.155 8.324.02 11.5l55.126 55.114c3.173 3.174 8.325 3.174 11.503 0l54.86-54.858c3.175-3.176 3.178-8.327.004-11.501z" fill="#000"/>
</svg>
